<?xml version="1.0" encoding="UTF-8" standalone="no"?>
<!DOCTYPE svg PUBLIC "-//W3C//DTD SVG 1.1//EN" "http://www.w3.org/Graphics/SVG/1.1/DTD/svg11.dtd">
<svg width="100%" height="100%" viewBox="0 0 4695 1958" version="1.1" xmlns="http://www.w3.org/2000/svg" xmlns:xlink="http://www.w3.org/1999/xlink" xml:space="preserve" style="fill-rule:evenodd;clip-rule:evenodd;stroke-miterlimit:10;">
    <g id="Artboard1" transform="matrix(0.891738,0,0,0.876433,0,0)">
        <rect x="0" y="0" width="5265" height="2233.61" style="fill:none;"/>
        <g transform="matrix(4.67252,0,0,4.75412,-1971.81,-646.56)">
            <g id="Layer-2">
                <path d="M422,370.5C422,500.011 526.989,605 656.5,605C786.011,605 891,500.011 891,370.5C891,240.989 786.011,136 656.5,136C526.989,136 422,240.989 422,370.5" style="fill:rgb(8,140,191);fill-rule:nonzero;"/>
            </g>
        </g>
        <g id="Layer-3" transform="matrix(4.67252,0,0,4.75412,0,0)">
            <g transform="matrix(1,0,0,1,-422,-136)">
                <path d="M891.809,378.567C888.09,378.192 884.318,378 880.5,378C818.92,378 769,427.92 769,489.5C769,516.274 778.442,540.842 794.171,560.063C851.119,519.149 888.964,453.344 891.809,378.567" style="fill:rgb(173,224,239);fill-rule:nonzero;"/>
            </g>
            <g transform="matrix(1,0,0,1,-422,-136)">
                <path d="M666.646,604.844C708.634,603.409 747.817,590.943 781.391,570.242C769.3,556.606 751.66,548 732.001,548C698.659,548 671.107,572.73 666.646,604.844" style="fill:rgb(173,224,239);fill-rule:nonzero;"/>
            </g>
            <g transform="matrix(1,0,0,1,-422,-136)">
                <path d="M843.518,511.974C832.748,506.867 820.711,504 808,504C762.161,504 725,541.161 725,587C725,589.603 725.136,592.173 725.371,594.714C772.984,580.107 814.138,550.75 843.518,511.974" style="fill:rgb(173,224,239);fill-rule:nonzero;"/>
            </g>
            <g transform="matrix(1,0,0,1,148.975,-476.065)">
                <path d="M478.389,639.301L477.099,639.301L475.594,639.301C474.949,639.086 474.519,639.086 473.659,639.086L471.294,639.086L468.499,639.086C467.424,639.301 466.349,639.301 465.274,639.301C464.199,639.301 463.124,639.301 461.834,639.516L461.834,639.731C461.834,640.806 461.619,642.311 461.619,644.461C461.404,646.396 461.189,648.761 461.189,651.556C461.189,653.061 460.974,654.566 460.974,656.071C460.974,657.79 460.759,659.295 460.759,661.016L460.759,669.401C460.759,670.26 460.974,671.335 460.974,672.196C461.189,674.13 461.189,676.28 461.189,678.215L461.189,691.33C461.189,693.48 460.974,695.63 460.759,697.995C460.759,700.36 460.759,702.51 460.974,704.875C461.189,707.025 461.619,709.39 461.619,711.755C461.404,714.119 461.404,716.27 461.189,718.635C460.974,720.999 460.759,723.15 460.759,725.515C460.544,727.664 460.544,730.03 460.544,732.179L460.544,738.844C460.544,743.144 460.544,747.229 460.759,751.314L460.759,762.493C460.974,776.253 461.189,785.498 461.189,785.498C461.189,787.003 459.899,788.293 458.18,788.508C456.674,788.508 455.169,787.218 455.169,785.498L455.599,762.493C455.599,758.839 455.599,755.184 455.814,751.314C455.814,747.229 455.814,743.144 456.029,738.844L456.029,732.179C456.029,730.03 456.029,727.664 455.814,725.515C455.599,723.15 455.384,720.999 455.384,718.634C455.169,716.27 454.954,714.119 454.954,711.754C454.954,709.39 455.169,707.025 455.384,704.874C455.599,702.51 455.599,700.36 455.599,697.994C455.599,695.63 455.384,693.48 455.384,691.33C455.169,690.04 455.169,688.965 455.169,687.89L455.169,684.665C455.169,682.515 455.384,680.365 455.384,678.215C455.384,676.28 455.384,674.13 455.599,672.196C455.599,671.335 455.599,670.26 455.814,669.401L455.814,666.391C455.814,664.67 455.599,662.736 455.599,661.016L455.599,656.071C455.384,654.566 455.384,653.061 455.384,651.556C455.169,648.761 455.169,646.396 454.954,644.461C454.954,642.526 454.739,641.021 454.739,639.946L451.514,640.16C450.439,640.376 449.365,640.376 448.289,640.376C447.43,640.591 446.354,640.591 445.494,640.591C443.775,640.806 442.269,641.021 441.195,641.021C440.335,641.236 439.69,641.236 439.69,641.236C437.54,641.45 435.82,639.946 435.605,637.796C435.389,635.861 436.895,633.926 439.26,633.711L448.075,633.711C448.934,633.711 450.01,633.711 451.3,633.496L458.18,633.496C459.254,633.281 460.329,633.281 461.619,633.281C462.694,633.281 463.984,633.281 465.059,633.066L468.069,633.066C469.144,632.851 470.004,632.851 471.079,632.636C471.939,632.636 472.584,632.636 473.444,632.421C474.089,632.421 474.734,632.206 475.164,632.206C476.239,631.991 476.884,631.991 476.884,631.991C478.819,631.561 480.754,632.851 481.184,634.786C481.614,636.936 480.324,638.871 478.389,639.301" style="fill:rgb(8,140,191);fill-rule:nonzero;"/>
            </g>
            <g transform="matrix(1,0,0,1,148.975,-476.065)">
                <path d="M500.103,726.406C502.468,726.406 505.048,726.238 507.413,726.069C509.778,725.732 512.143,725.394 514.078,724.551C515.153,724.213 516.013,723.707 516.873,723.201C517.732,722.694 518.377,722.019 519.022,721.344C520.312,719.995 521.388,718.307 522.033,716.451C522.678,714.764 523.323,712.739 523.752,710.883C524.397,707.003 524.612,702.953 524.828,698.903C524.828,697.89 525.042,696.878 525.042,695.865L525.042,692.828C525.042,690.803 524.828,688.948 524.397,687.092C523.967,685.066 523.323,683.21 522.462,681.523C521.388,679.836 520.312,678.148 518.592,676.799C517.087,675.448 515.153,674.267 513.217,673.424C512.143,672.918 511.068,672.581 509.993,672.411C508.703,672.074 507.628,671.905 506.338,671.736C503.973,671.399 501.608,671.399 499.243,671.568C497.953,671.736 496.663,671.736 495.588,671.905L494.513,672.242L494.513,677.642C494.728,680.005 494.513,682.367 494.513,684.898L493.868,692.154C493.868,694.515 493.868,697.047 494.083,699.41C494.083,701.771 494.083,704.302 494.298,706.665L494.298,726.238L500.103,726.406ZM529.987,786.813C530.203,787.996 528.913,789.177 527.192,789.177C525.902,789.345 524.828,788.67 524.397,787.826C524.397,787.826 524.183,787.658 523.967,787.152L523.752,786.476C523.538,786.139 523.323,785.802 523.107,785.296L522.033,782.427C521.602,781.414 521.172,780.064 520.743,778.715C520.312,777.365 519.667,775.846 519.238,774.328C518.808,772.808 518.163,771.122 517.732,769.434L514.292,758.635C514.078,757.623 513.863,756.779 513.433,755.767L512.788,753.067C512.143,751.211 511.713,749.523 511.068,747.668C510.638,745.98 510.207,744.293 509.563,742.774L508.918,740.412C508.703,739.737 508.488,739.061 508.273,738.387C507.628,737.037 507.198,735.687 506.768,734.675C506.338,733.494 506.123,732.481 505.693,731.806L505.478,730.794C503.543,730.963 501.823,730.963 500.103,730.963L494.298,730.963C494.298,732.481 494.298,734.169 494.083,735.856C494.083,738.218 493.868,740.581 493.868,743.111L493.868,750.367L494.513,772.135C494.513,774.665 494.513,777.027 494.728,779.39C494.728,781.921 494.943,784.283 495.158,786.645C495.158,788.333 493.653,789.682 491.503,789.682C489.568,789.851 487.633,788.502 487.633,786.983L487.633,786.645C487.848,784.283 487.848,781.921 488.063,779.39C488.063,777.027 488.278,774.665 488.278,772.135L488.708,757.623L488.708,750.367C488.923,747.836 488.923,745.473 488.923,743.111C488.923,740.581 488.708,738.218 488.708,735.856C488.493,733.325 488.493,730.963 488.493,728.431L488.278,721.177L488.278,713.921C488.278,711.558 488.278,709.196 488.493,706.665C488.493,704.302 488.708,701.771 488.708,699.41L488.708,692.154C488.708,689.792 488.493,687.26 488.278,684.898C488.063,682.367 488.063,680.004 488.063,677.642C488.063,675.111 488.278,672.749 488.278,670.386L488.278,670.218C488.278,669.036 489.353,668.193 490.428,668.024C490.858,668.024 490.858,668.024 491.073,667.855L491.718,667.855C491.933,667.855 492.363,667.686 492.793,667.686C493.438,667.686 494.083,667.518 494.728,667.518C496.233,667.349 497.523,667.349 499.028,667.349C501.823,667.349 504.618,667.518 507.198,668.024C508.703,668.193 509.993,668.531 511.283,668.868C512.788,669.206 514.078,669.712 515.368,670.218C517.732,671.399 520.097,672.749 522.033,674.436C523.967,676.124 525.473,678.148 526.547,680.174C526.978,681.186 527.623,682.198 527.837,683.21L528.482,684.729C528.482,685.235 528.697,685.91 528.913,686.416C529.342,688.441 529.558,690.635 529.772,692.66L529.772,698.903C529.772,701.096 529.772,703.121 529.558,705.146C529.342,707.34 529.127,709.365 528.697,711.389C528.482,713.583 527.837,715.607 527.192,717.802C526.332,719.826 525.257,722.019 523.323,723.876C522.462,724.888 521.602,725.732 520.312,726.576C519.238,727.25 517.948,727.926 516.443,728.6C514.937,729.275 513.217,729.612 511.498,729.95L511.713,730.456C511.928,731.3 512.358,732.312 512.573,733.494C513.003,734.506 513.217,735.856 513.648,737.206L514.292,739.4C514.722,740.074 514.937,740.918 515.153,741.594L516.873,746.486C517.518,748.174 518.163,750.029 518.808,751.885C519.238,752.729 519.667,753.573 519.883,754.586C520.312,755.428 520.528,756.273 520.957,757.285L524.828,767.916C525.473,769.602 525.902,771.291 526.547,772.808L527.837,777.365C528.268,778.715 528.697,779.896 529.127,781.077L529.772,783.946C529.772,784.79 529.987,785.464 529.987,785.97L529.987,786.813Z" style="fill:rgb(8,140,191);fill-rule:nonzero;"/>
            </g>
            <g transform="matrix(1,0,0,1,148.975,-476.065)">
                <path d="M580.939,670.893L580.939,673.593C580.724,675.449 580.724,677.981 580.51,681.355C580.51,684.73 580.51,688.78 580.295,693.504L580.295,718.139C580.295,721.177 580.51,724.383 580.724,727.757L580.724,732.651C580.724,734.338 580.724,736.025 580.939,737.881C580.939,741.256 580.939,744.8 580.724,748.512C580.724,750.2 580.51,752.055 580.51,753.912C580.51,755.768 580.295,757.623 580.079,759.48C579.65,763.192 579.005,766.904 578.145,770.786C577.93,771.797 577.499,772.809 577.285,773.653C577.069,774.665 576.64,775.678 576.425,776.522C575.564,778.547 574.704,780.572 573.415,782.427C572.77,783.44 571.91,784.284 570.835,785.127C569.76,786.14 568.685,786.814 567.18,787.49C565.89,787.997 564.385,788.502 562.88,788.839L560.731,789.008C560.3,789.008 559.871,789.177 559.655,789.177L559.01,789.008L557.29,789.008C557.075,789.008 556.646,788.839 556.214,788.839C555.57,788.67 554.71,788.67 554.064,788.333C552.56,787.997 551.055,787.49 549.766,786.814L546.54,784.284C545.68,783.271 545.036,782.427 544.391,781.414C541.81,777.535 540.95,773.653 540.09,769.773C539.445,766.06 539.016,762.179 538.585,758.467C538.371,756.611 538.156,754.755 538.156,752.899C537.94,751.211 537.94,749.356 537.726,747.499C537.295,740.244 537.295,733.326 537.08,726.745C537.08,720.164 536.866,713.921 536.866,708.184C536.651,696.71 536.651,687.092 536.651,680.511C536.435,673.762 536.435,669.881 536.435,669.881C536.435,668.363 537.94,667.012 540.09,667.012C542.026,667.012 543.746,668.193 543.746,669.881C543.746,669.881 543.746,673.762 543.531,680.511L542.886,708.184C542.67,713.921 542.67,720.164 542.455,726.745C542.455,733.326 542.455,740.244 542.67,747.331C542.67,749.187 542.886,751.042 542.886,752.73C542.886,753.743 543.101,754.586 543.101,755.429C543.101,756.442 543.315,757.286 543.315,758.298C543.746,761.841 544.391,765.554 545.251,769.097L545.896,771.797C546.325,772.641 546.54,773.485 546.97,774.329C547.616,776.185 548.476,777.703 549.55,779.221C550.626,780.572 552.13,781.752 553.636,782.427C554.281,782.934 555.141,783.103 556.001,783.271C556.43,783.44 556.859,783.44 557.29,783.44C557.505,783.609 557.72,783.609 557.935,783.609L559.439,783.609L559.871,783.44L561.589,783.44L564.17,782.934C565.675,782.258 567.18,781.247 568.255,779.897C569.33,778.547 570.189,777.028 571.05,775.341C571.265,774.497 571.694,773.653 571.91,772.809L572.555,770.11C573.199,766.398 573.415,762.854 573.63,759.142C573.844,757.286 573.844,755.429 574.06,753.743C574.06,751.886 574.06,750.03 574.275,748.343C574.275,744.8 574.489,741.256 574.489,737.712L574.489,732.651C574.704,730.963 574.704,729.276 574.704,727.757C574.92,724.383 574.92,721.177 574.92,718.139C574.92,714.933 574.92,712.065 574.704,709.196C574.704,706.328 574.704,703.459 574.489,700.928C574.489,698.228 574.489,695.866 574.275,693.504C574.06,688.78 574.06,684.73 573.844,681.355C573.844,677.981 573.63,675.449 573.63,673.593L573.63,670.893C573.415,669.206 575.135,667.856 577.069,667.856C579.219,667.856 580.939,669.037 580.939,670.725L580.939,670.893Z" style="fill:rgb(8,140,191);fill-rule:nonzero;"/>
            </g>
            <g transform="matrix(1,0,0,1,148.975,-476.065)">
                <path d="M626.52,758.635C626.52,756.611 626.305,754.586 626.09,752.73C625.875,750.705 625.661,748.68 625.015,746.656C624.585,744.8 623.939,742.944 622.865,741.087C622.005,739.401 620.93,737.712 619.425,736.195C617.92,734.844 616.201,733.662 614.05,732.651C612.116,731.807 609.75,731.132 607.386,730.794C605.02,730.288 602.441,730.119 599.861,730.119C597.925,729.95 596.206,729.95 594.271,729.95L594.486,736.025L594.701,739.569L594.701,743.281L594.915,750.367L594.915,757.623C595.131,759.986 595.131,762.517 595.131,764.879L595.131,784.79C595.346,784.79 595.561,784.958 595.776,784.958L599.43,785.464C601.795,785.633 604.161,785.633 606.526,785.296C608.891,785.127 611.255,784.62 613.189,783.778C615.34,782.934 617.275,781.921 618.78,780.572C620.286,779.221 621.574,777.702 622.65,776.015C623.725,774.328 624.585,772.472 625.015,770.615C625.661,768.591 626.09,766.736 626.305,764.71L626.305,763.192L626.52,761.673L626.52,760.155L626.52,758.635ZM594.701,672.411C594.271,672.411 593.841,672.581 593.411,672.581C593.626,674.606 593.626,676.461 593.626,678.318L593.841,685.573L594.055,692.66L594.055,699.915L594.271,707.171L594.271,726.406L595.776,726.406C597.066,726.406 598.356,726.239 599.646,726.239C602.011,726.07 604.375,725.733 606.741,725.395C609.105,724.889 611.471,724.213 613.406,723.37C615.555,722.358 617.49,721.345 618.996,719.995C620.5,718.645 621.79,717.127 622.65,715.439L623.939,712.739C624.156,711.896 624.371,711.052 624.585,710.039C624.8,709.197 624.8,708.184 625.015,707.171L625.015,705.822L625.015,705.147L625.015,704.303L624.371,698.398C624.371,697.554 624.156,696.541 623.939,695.529C623.939,695.022 623.939,694.516 623.725,694.179C623.725,693.672 623.51,693.166 623.51,692.66C623.081,690.804 622.65,688.948 622.005,687.092L621.36,685.742L620.93,684.393L619.641,681.693C618.78,680.005 617.706,678.487 616.201,676.968C615.555,676.292 614.694,675.617 614.05,675.112C613.189,674.437 612.331,673.931 611.255,673.424C610.395,672.918 609.321,672.581 608.246,672.242C607.17,672.074 606.096,671.737 605.02,671.737C603.946,671.569 602.656,671.399 601.581,671.569C600.29,671.569 599.216,671.569 598.141,671.737C596.851,671.906 595.776,672.074 594.701,672.411M631.68,758.635L631.68,763.361L631.465,765.047C631.25,767.24 630.819,769.266 630.39,771.459C629.746,773.653 628.885,775.678 627.595,777.871C626.52,779.897 624.8,781.752 622.865,783.44C620.93,785.296 618.351,786.646 615.77,787.658C613.189,788.839 610.18,789.514 607.386,789.852C604.591,790.02 601.581,790.19 598.786,789.852C597.496,789.852 595.991,789.683 594.701,789.514C593.841,789.346 593.196,789.177 592.55,789.177L591.476,788.839L591.045,788.67L590.401,788.67L589.326,788.333C588.251,787.996 587.606,787.153 587.606,786.308C587.821,785.127 587.821,783.947 587.821,782.765C588.036,781.584 588.036,780.403 588.251,779.221L588.251,775.509L588.466,771.966C588.68,769.603 588.68,767.24 588.896,764.71C588.896,762.348 588.896,759.986 589.111,757.623L589.326,750.367L589.326,728.77C589.326,726.406 589.326,724.044 589.111,721.683L588.896,714.427L588.68,710.883L588.466,707.171L588.251,700.084L587.821,685.573L587.606,678.487L587.391,674.775L587.391,671.062C587.391,670.218 588.036,669.375 589.111,669.206L589.326,669.036L589.756,668.868L590.186,668.868L591.261,668.531L593.196,668.025L597.281,667.519C598.786,667.35 600.076,667.35 601.581,667.35C602.871,667.35 604.375,667.519 605.881,667.687C607.17,667.856 608.675,668.194 609.965,668.531C611.255,668.868 612.761,669.375 613.835,669.881C615.125,670.387 616.415,671.062 617.49,671.737L620.715,674.099C622.65,675.786 624.156,677.643 625.446,679.667C626.09,680.68 626.52,681.693 626.951,682.704L627.595,684.223C627.81,684.73 628.025,685.236 628.241,685.742C628.885,687.767 629.53,689.792 629.746,691.986C629.96,692.491 629.96,692.998 629.96,693.504C630.175,694.01 630.175,694.516 630.175,695.022C630.39,696.034 630.39,697.216 630.39,698.228C630.605,700.253 630.39,702.278 630.39,704.303L630.39,705.99C630.39,706.496 630.175,707.003 630.175,707.509L629.53,710.715C629.1,712.908 628.241,714.933 626.951,716.958C625.875,718.983 624.156,720.839 622.22,722.358C620.286,724.044 618.135,725.395 615.555,726.406C614.266,726.913 612.976,727.419 611.686,727.757C613.406,728.263 614.911,728.77 616.415,729.445C618.996,730.456 621.36,731.976 623.081,733.831C625.015,735.688 626.52,737.544 627.595,739.569C628.67,741.762 629.314,743.787 629.96,745.981C630.605,748.005 631.036,750.199 631.25,752.224C631.465,754.417 631.68,756.442 631.68,758.635" style="fill:rgb(8,140,191);fill-rule:nonzero;"/>
            </g>
            <g transform="matrix(1,0,0,1,148.975,-476.065)">
                <path d="M675.754,725.732C675.754,723.707 675.539,721.85 675.539,719.826L675.539,714.595L675.539,709.196C675.323,705.652 675.323,701.94 674.894,698.227C674.894,696.372 674.679,694.515 674.464,692.828C674.249,691.815 674.033,690.972 674.033,689.96L673.389,687.259C672.959,685.404 672.528,683.547 671.884,681.86C671.454,680.004 670.594,678.317 669.733,676.629C668.874,675.111 667.799,673.592 666.509,672.581C665.863,672.074 665.219,671.736 664.574,671.399C663.929,671.23 663.284,671.061 662.424,671.061L662.209,671.061L661.779,671.23L661.349,671.23C660.919,671.23 660.704,671.399 660.274,671.568C659.629,671.736 658.984,672.242 658.339,672.749C656.834,673.761 655.759,675.111 654.684,676.798C653.609,678.317 652.749,680.004 651.889,681.692C651.459,682.704 651.244,683.547 650.815,684.392C650.599,685.235 650.384,686.248 649.954,687.091L648.664,692.491C648.449,694.347 648.02,696.204 647.804,698.059L646.299,708.858C645.654,714.595 645.009,720.333 644.579,725.732L645.44,725.732C646.084,725.732 646.73,725.9 647.589,725.9L652.534,725.9C654.469,726.069 656.404,726.069 658.339,726.069L664.144,726.069C665.219,726.238 666.079,726.238 666.939,726.238L671.454,726.238L672.959,726.069C673.389,726.069 673.604,726.069 673.818,725.9L674.894,725.9L675.754,725.732ZM680.913,748.511C680.913,751.379 680.913,754.248 680.698,756.779L680.698,770.953C680.483,772.978 680.483,774.834 680.483,776.521C680.483,779.896 680.483,782.426 680.269,784.283L680.269,787.152C680.269,788.333 678.764,789.345 677.259,789.345C675.539,789.345 674.249,788.333 674.249,786.983C674.249,786.983 674.464,785.97 674.464,784.114C674.464,782.426 674.679,779.727 674.894,776.352C674.894,774.665 674.894,772.808 675.108,770.785C675.108,768.759 675.108,766.566 675.323,764.204L675.323,756.779C675.539,754.248 675.539,751.379 675.539,748.511C675.539,745.642 675.754,742.606 675.754,739.568L675.754,734.843L675.754,731.637C675.108,731.637 674.679,731.637 674.249,731.468C674.249,731.468 674.249,731.299 673.818,731.299C673.604,731.299 673.389,731.131 672.959,731.131C672.528,730.962 671.884,730.962 671.454,730.962C670.809,730.794 670.164,730.794 669.304,730.794L668.229,730.794L666.939,730.794L664.144,730.794C663.284,730.962 662.424,730.962 661.349,730.962L659.844,730.962L658.339,730.962C656.404,730.962 654.469,730.962 652.534,731.131L649.954,731.131L648.664,731.131L647.589,731.131C646.73,731.131 646.084,731.299 645.44,731.299L644.364,731.299C644.15,732.312 644.15,733.325 643.935,734.337C643.935,735.856 643.719,737.544 643.719,739.061C643.504,740.581 643.504,742.099 643.504,743.617L643.504,748.004C643.504,753.742 643.719,758.973 643.935,763.697L644.579,775.846C644.794,779.052 645.225,781.752 645.225,783.608L645.654,786.307C645.654,787.996 644.15,789.345 642.214,789.513C640.065,789.513 638.344,788.333 638.129,786.813L638.129,786.476L638.129,783.777L638.129,775.846L638.129,763.697C638.129,758.973 638.344,753.742 638.344,748.004C638.56,746.486 638.56,744.967 638.56,743.617L638.56,738.893L638.56,734.169C638.56,732.481 638.56,730.962 638.775,729.275C638.775,725.9 638.989,722.526 639.204,718.982C639.634,715.607 639.85,712.064 640.279,708.352C640.709,704.808 641.355,701.096 641.999,697.384C642.429,695.528 642.859,693.671 643.504,691.815C643.935,689.96 644.364,688.103 645.009,686.248C645.225,685.235 645.654,684.222 645.869,683.379L646.944,680.51C647.159,679.498 647.589,678.654 648.02,677.642L649.309,674.774C650.384,672.918 651.674,671.061 653.609,669.206C654.684,668.362 655.759,667.518 657.479,667.012C658.124,666.674 658.984,666.336 659.844,666.169C660.274,666.169 660.704,666.169 661.134,666L662.424,666C663.929,666 665.863,666.336 667.369,666.842C668.874,667.518 670.164,668.362 671.238,669.206C672.099,670.217 672.959,671.061 673.604,672.074C674.249,673.086 674.894,674.098 675.323,675.111C677.044,678.992 677.689,682.873 678.334,686.753C679.408,694.347 679.623,701.94 680.054,709.027C680.269,716.283 680.483,723.37 680.483,729.95C680.698,733.156 680.698,736.362 680.698,739.568C680.698,742.605 680.698,745.642 680.913,748.511" style="fill:rgb(8,140,191);fill-rule:nonzero;"/>
            </g>
            <g transform="matrix(1,0,0,1,148.975,-476.065)">
                <path d="M726.921,639.301L725.631,639.301L724.126,639.301C723.482,639.086 723.052,639.086 722.192,639.086L719.826,639.086L717.031,639.086C715.956,639.301 714.882,639.301 713.807,639.301C712.732,639.301 711.656,639.301 710.366,639.516L710.366,639.731C710.366,640.806 710.151,642.311 710.151,644.461C709.937,646.396 709.722,648.761 709.722,651.556C709.722,653.061 709.507,654.566 709.507,656.071C709.507,657.79 709.292,659.295 709.292,661.016L709.292,669.401C709.292,670.26 709.507,671.335 709.507,672.196C709.722,674.13 709.722,676.28 709.722,678.215L709.722,691.33C709.722,693.48 709.507,695.63 709.292,697.995C709.292,700.36 709.292,702.51 709.507,704.875C709.722,707.025 710.151,709.39 710.151,711.755C709.937,714.119 709.937,716.27 709.722,718.635C709.507,720.999 709.292,723.15 709.292,725.515C709.076,727.664 709.076,730.03 709.076,732.179L709.076,738.844C709.076,743.144 709.076,747.229 709.292,751.314L709.292,762.493C709.507,776.253 709.722,785.498 709.722,785.498C709.722,787.003 708.432,788.293 706.712,788.508C705.207,788.508 703.702,787.218 703.702,785.498L704.132,762.493C704.132,758.839 704.132,755.184 704.347,751.314C704.347,747.229 704.347,743.144 704.562,738.844L704.562,732.179C704.562,730.03 704.562,727.664 704.347,725.515C704.132,723.15 703.917,720.999 703.917,718.634C703.702,716.27 703.486,714.119 703.486,711.754C703.486,709.39 703.702,707.025 703.917,704.874C704.132,702.51 704.132,700.36 704.132,697.994C704.132,695.63 703.917,693.48 703.917,691.33C703.702,690.04 703.702,688.965 703.702,687.89L703.702,684.665C703.702,682.515 703.917,680.365 703.917,678.215C703.917,676.28 703.917,674.13 704.132,672.196C704.132,671.335 704.132,670.26 704.347,669.401L704.347,666.391C704.347,664.67 704.132,662.736 704.132,661.016L704.132,656.071C703.917,654.566 703.917,653.061 703.917,651.556C703.702,648.761 703.702,646.396 703.486,644.461C703.486,642.526 703.272,641.021 703.272,639.946L700.047,640.16C698.972,640.376 697.897,640.376 696.822,640.376C695.962,640.591 694.887,640.591 694.027,640.591C692.307,640.806 690.802,641.021 689.727,641.021C688.867,641.236 688.222,641.236 688.222,641.236C686.072,641.45 684.352,639.946 684.137,637.796C683.922,635.861 685.427,633.926 687.792,633.711L696.607,633.711C697.467,633.711 698.542,633.711 699.832,633.496L706.712,633.496C707.787,633.281 708.861,633.281 710.151,633.281C711.227,633.281 712.517,633.281 713.592,633.066L716.602,633.066C717.677,632.851 718.536,632.851 719.611,632.636C720.472,632.636 721.116,632.636 721.977,632.421C722.621,632.421 723.267,632.206 723.696,632.206C724.772,631.991 725.416,631.991 725.416,631.991C727.352,631.561 729.286,632.851 729.716,634.786C730.147,636.936 728.857,638.871 726.921,639.301" style="fill:rgb(8,140,191);fill-rule:nonzero;"/>
            </g>
            <g transform="matrix(1,0,0,1,148.975,-476.065)">
                <path d="M750.999,672.918L750.139,672.918C749.709,672.918 748.849,672.918 747.989,673.087C746.914,673.087 745.839,673.255 744.764,673.762C743.474,674.268 742.399,674.942 741.324,675.955C740.464,677.137 739.389,678.654 738.744,680.68C738.099,682.536 737.669,684.73 737.239,687.092C736.379,691.815 735.949,697.554 735.734,703.627C735.52,709.702 735.304,716.283 735.304,723.37C735.089,730.456 735.089,737.881 735.089,745.643L735.089,757.285C735.304,761.167 735.52,765.216 735.949,769.097C736.379,771.122 736.594,772.979 737.239,774.834C737.669,776.69 738.314,778.547 739.389,780.064C740.034,780.74 740.464,781.414 741.324,781.921C741.539,782.09 741.969,782.258 742.399,782.427C742.614,782.597 743.044,782.765 743.474,782.934C745.194,783.439 747.559,783.608 749.924,783.608L751.644,783.608C752.289,783.608 752.719,783.439 753.364,783.439C754.224,783.439 755.299,783.271 756.159,782.934C757.019,782.597 757.879,782.258 758.523,781.752C758.954,781.584 759.384,781.246 759.599,780.908C760.028,780.571 760.244,780.233 760.459,779.897C761.749,778.547 762.394,776.69 763.039,774.834C763.684,772.979 763.898,771.122 764.113,769.097C764.759,765.216 764.759,761.167 764.759,757.285C764.974,755.261 764.974,753.405 764.974,751.38L764.974,745.643C765.188,741.762 765.188,738.05 765.188,734.338L765.188,728.939C765.403,727.082 765.403,725.226 765.403,723.539C765.618,719.995 765.834,716.62 765.618,713.245L765.618,703.627C765.403,700.591 765.403,697.722 765.188,694.854C764.974,692.154 764.759,689.454 764.328,687.092C764.113,684.73 763.684,682.367 763.039,680.511C762.394,678.486 761.533,676.968 760.674,675.786C759.599,674.605 758.738,674.099 757.664,673.593C756.589,673.255 755.299,673.087 754.224,673.087C753.364,672.918 752.504,672.918 751.858,672.918L750.999,672.918ZM750.999,667.181L752.074,667.181C752.934,667.181 753.794,667.181 755.299,667.35C756.804,667.519 758.523,667.856 760.674,668.699C761.749,669.036 762.823,669.712 763.898,670.387C764.759,671.062 765.618,672.074 766.478,672.918C767.983,674.942 768.844,677.137 769.273,679.33C769.919,681.692 770.349,684.054 770.563,686.586C770.778,689.116 770.993,691.815 770.993,694.685L770.993,713.245C770.993,716.62 771.209,719.995 771.424,723.539L771.424,728.939C771.424,730.625 771.424,732.481 771.639,734.338L771.639,745.643C771.639,747.668 771.639,749.523 771.424,751.549L771.424,754.417C771.424,755.429 771.424,756.441 771.209,757.454C771.209,759.48 770.993,761.504 770.778,763.529C770.563,765.554 770.134,767.579 769.919,769.603C769.488,771.628 769.059,773.821 768.413,775.847C767.769,777.871 767.124,780.064 765.618,782.258C764.974,783.271 764.113,784.283 762.823,785.296C761.749,786.14 760.459,786.983 758.954,787.489C755.943,788.67 752.719,789.008 749.924,789.177C748.419,789.008 746.914,789.008 745.409,788.839C743.904,788.502 742.399,788.333 740.894,787.658C740.034,787.489 739.389,787.152 738.744,786.646C737.884,786.308 737.239,785.802 736.809,785.464C735.52,784.452 734.659,783.271 734.014,782.258C733.369,781.077 732.939,780.064 732.509,778.884C732.079,777.871 731.864,776.858 731.649,775.678C731.219,773.652 731.004,771.459 730.789,769.435C730.574,765.385 730.359,761.335 730.359,757.285C730.145,753.405 730.145,749.523 730.145,745.643C729.93,737.881 729.93,730.456 729.93,723.37C729.714,716.283 729.714,709.702 729.714,703.459C729.714,697.385 729.93,691.647 730.789,686.416C731.004,683.886 731.649,681.523 732.294,679.161C733.154,676.968 734.229,674.774 735.734,672.918C736.379,672.074 737.454,671.231 738.314,670.556C739.389,669.881 740.464,669.206 741.324,668.868C743.474,668.024 745.409,667.687 746.699,667.519C748.204,667.35 749.279,667.181 749.924,667.181L750.999,667.181Z" style="fill:rgb(8,140,191);fill-rule:nonzero;"/>
            </g>
            <g transform="matrix(1,0,0,1,148.975,-476.065)">
                <path d="M822.592,670.893L822.592,673.593C822.377,675.449 822.377,677.981 822.161,681.355C822.161,684.73 822.161,688.78 821.946,693.504L821.946,718.139C821.946,721.177 822.161,724.383 822.377,727.757L822.377,732.651C822.377,734.338 822.377,736.025 822.592,737.881C822.592,741.256 822.592,744.8 822.377,748.512C822.377,750.2 822.161,752.055 822.161,753.912C822.161,755.768 821.946,757.623 821.732,759.48C821.302,763.192 820.656,766.904 819.797,770.786C819.582,771.797 819.152,772.809 818.937,773.653C818.722,774.665 818.292,775.678 818.076,776.522C817.217,778.547 816.357,780.572 815.067,782.427C814.422,783.44 813.562,784.284 812.487,785.127C811.412,786.14 810.337,786.814 808.832,787.49C807.542,787.997 806.037,788.502 804.532,788.839L802.382,789.008C801.952,789.008 801.522,789.177 801.307,789.177L800.662,789.008L798.942,789.008C798.727,789.008 798.297,788.839 797.867,788.839C797.222,788.67 796.363,788.67 795.717,788.333C794.212,787.997 792.707,787.49 791.417,786.814L788.193,784.284C787.332,783.271 786.688,782.427 786.042,781.414C783.462,777.535 782.603,773.653 781.742,769.773C781.098,766.06 780.667,762.179 780.238,758.467C780.023,756.611 779.808,754.755 779.808,752.899C779.592,751.211 779.592,749.356 779.377,747.499C778.947,740.244 778.947,733.326 778.733,726.745C778.733,720.164 778.518,713.921 778.518,708.184C778.303,696.71 778.303,687.092 778.303,680.511C778.087,673.762 778.087,669.881 778.087,669.881C778.087,668.363 779.592,667.012 781.742,667.012C783.677,667.012 785.398,668.193 785.398,669.881C785.398,669.881 785.398,673.762 785.182,680.511L784.537,708.184C784.322,713.921 784.322,720.164 784.108,726.745C784.108,733.326 784.108,740.244 784.322,747.331C784.322,749.187 784.537,751.042 784.537,752.73C784.537,753.743 784.752,754.586 784.752,755.429C784.752,756.442 784.967,757.286 784.967,758.298C785.398,761.841 786.042,765.554 786.903,769.097L787.547,771.797C787.978,772.641 788.193,773.485 788.622,774.329C789.267,776.185 790.127,777.703 791.202,779.221C792.278,780.572 793.782,781.752 795.287,782.427C795.932,782.934 796.792,783.103 797.653,783.271C798.082,783.44 798.512,783.44 798.942,783.44C799.157,783.609 799.372,783.609 799.587,783.609L801.092,783.609L801.522,783.44L803.242,783.44L805.822,782.934C807.327,782.258 808.832,781.247 809.906,779.897C810.982,778.547 811.842,777.028 812.701,775.341C812.917,774.497 813.347,773.653 813.562,772.809L814.207,770.11C814.852,766.398 815.067,762.854 815.281,759.142C815.497,757.286 815.497,755.429 815.712,753.743C815.712,751.886 815.712,750.03 815.927,748.343C815.927,744.8 816.142,741.256 816.142,737.712L816.142,732.651C816.357,730.963 816.357,729.276 816.357,727.757C816.571,724.383 816.571,721.177 816.571,718.139C816.571,714.933 816.571,712.065 816.357,709.196C816.357,706.328 816.357,703.459 816.142,700.928C816.142,698.228 816.142,695.866 815.927,693.504C815.712,688.78 815.712,684.73 815.497,681.355C815.497,677.981 815.281,675.449 815.281,673.593L815.281,670.893C815.067,669.206 816.786,667.856 818.722,667.856C820.871,667.856 822.592,669.037 822.592,670.725L822.592,670.893Z" style="fill:rgb(8,140,191);fill-rule:nonzero;"/>
            </g>
            <g transform="matrix(1,0,0,1,148.975,-476.065)">
                <path d="M841.512,726.406C843.877,726.406 846.457,726.238 848.823,726.069C851.187,725.732 853.552,725.394 855.488,724.551C856.562,724.213 857.422,723.707 858.283,723.201C859.142,722.694 859.787,722.019 860.432,721.344C861.722,719.995 862.797,718.307 863.442,716.451C864.087,714.764 864.732,712.739 865.162,710.883C865.807,707.003 866.022,702.953 866.237,698.903C866.237,697.89 866.452,696.878 866.452,695.865L866.452,692.828C866.452,690.803 866.237,688.948 865.807,687.092C865.377,685.066 864.732,683.21 863.872,681.523C862.797,679.836 861.722,678.148 860.002,676.799C858.497,675.448 856.562,674.267 854.627,673.424C853.552,672.918 852.477,672.581 851.403,672.411C850.113,672.074 849.037,671.905 847.747,671.736C845.382,671.399 843.018,671.399 840.653,671.568C839.363,671.736 838.073,671.736 836.997,671.905L835.922,672.242L835.922,677.642C836.137,680.005 835.922,682.367 835.922,684.898L835.278,692.154C835.278,694.515 835.278,697.047 835.492,699.41C835.492,701.771 835.492,704.302 835.707,706.665L835.707,726.238L841.512,726.406ZM871.397,786.813C871.612,787.996 870.322,789.177 868.602,789.177C867.312,789.345 866.237,788.67 865.807,787.826C865.807,787.826 865.592,787.658 865.377,787.152L865.162,786.476C864.947,786.139 864.732,785.802 864.517,785.296L863.442,782.427C863.012,781.414 862.582,780.064 862.152,778.715C861.722,777.365 861.077,775.846 860.647,774.328C860.217,772.808 859.573,771.122 859.142,769.434L855.702,758.635C855.488,757.623 855.272,756.779 854.842,755.767L854.198,753.067C853.552,751.211 853.122,749.523 852.477,747.668C852.047,745.98 851.617,744.293 850.972,742.774L850.327,740.412C850.113,739.737 849.897,739.061 849.682,738.387C849.037,737.037 848.608,735.687 848.177,734.675C847.747,733.494 847.533,732.481 847.102,731.806L846.887,730.794C844.952,730.963 843.233,730.963 841.512,730.963L835.707,730.963C835.707,732.481 835.707,734.169 835.492,735.856C835.492,738.218 835.278,740.581 835.278,743.111L835.278,750.367L835.922,772.135C835.922,774.665 835.922,777.027 836.137,779.39C836.137,781.921 836.353,784.283 836.568,786.645C836.568,788.333 835.063,789.682 832.912,789.682C830.978,789.851 829.042,788.502 829.042,786.983L829.042,786.645C829.258,784.283 829.258,781.921 829.473,779.39C829.473,777.027 829.688,774.665 829.688,772.135L830.117,757.623L830.117,750.367C830.332,747.836 830.332,745.473 830.332,743.111C830.332,740.581 830.117,738.218 830.117,735.856C829.903,733.325 829.903,730.963 829.903,728.431L829.688,721.177L829.688,713.921C829.688,711.558 829.688,709.196 829.903,706.665C829.903,704.302 830.117,701.771 830.117,699.41L830.117,692.154C830.117,689.792 829.903,687.26 829.688,684.898C829.473,682.367 829.473,680.004 829.473,677.642C829.473,675.111 829.688,672.749 829.688,670.386L829.688,670.218C829.688,669.036 830.763,668.193 831.837,668.024C832.268,668.024 832.268,668.024 832.483,667.855L833.127,667.855C833.342,667.855 833.773,667.686 834.202,667.686C834.848,667.686 835.492,667.518 836.137,667.518C837.643,667.349 838.933,667.349 840.438,667.349C843.233,667.349 846.028,667.518 848.608,668.024C850.113,668.193 851.403,668.531 852.693,668.868C854.198,669.206 855.488,669.712 856.778,670.218C859.142,671.399 861.507,672.749 863.442,674.436C865.377,676.124 866.882,678.148 867.957,680.174C868.387,681.186 869.032,682.198 869.247,683.21L869.892,684.729C869.892,685.235 870.107,685.91 870.322,686.416C870.752,688.441 870.967,690.635 871.182,692.66L871.182,698.903C871.182,701.096 871.182,703.121 870.967,705.146C870.752,707.34 870.537,709.365 870.107,711.389C869.892,713.583 869.247,715.607 868.602,717.802C867.741,719.826 866.667,722.019 864.732,723.876C863.872,724.888 863.012,725.732 861.722,726.576C860.647,727.25 859.357,727.926 857.852,728.6C856.347,729.275 854.627,729.612 852.908,729.95L853.122,730.456C853.337,731.3 853.767,732.312 853.982,733.494C854.412,734.506 854.627,735.856 855.057,737.206L855.702,739.4C856.132,740.074 856.347,740.918 856.562,741.594L858.283,746.486C858.927,748.174 859.573,750.029 860.217,751.885C860.647,752.729 861.077,753.573 861.292,754.586C861.722,755.428 861.937,756.273 862.367,757.285L866.237,767.916C866.882,769.602 867.312,771.291 867.957,772.808L869.247,777.365C869.677,778.715 870.107,779.896 870.537,781.077L871.182,783.946C871.182,784.79 871.397,785.464 871.397,785.97L871.397,786.813Z" style="fill:rgb(8,140,191);fill-rule:nonzero;"/>
            </g>
            <g transform="matrix(1,0,0,1,-422,-136)">
                <path d="M505.711,460.333L483.282,431.502C479.475,426.607 480.547,419.521 485.633,415.973L496.745,408.219C499.991,405.954 504.214,405.641 507.758,407.401L535.595,421.228C541.595,424.208 543.476,431.866 539.541,437.288L523.021,460.045C518.785,465.88 510.138,466.023 505.711,460.333" style="fill:rgb(8,71,97);fill-rule:nonzero;"/>
            </g>
            <g transform="matrix(1,0,0,1,-422,-136)">
                <path d="M527.476,488.81L547.747,519.196C551.189,524.355 558.251,525.575 563.225,521.871L574.091,513.776C577.265,511.412 578.896,507.503 578.345,503.584L574.017,472.806C573.084,466.172 566.413,461.968 560.026,463.99L533.216,472.477C526.342,474.653 523.475,482.812 527.476,488.81" style="fill:rgb(8,71,97);fill-rule:nonzero;"/>
            </g>
            <g transform="matrix(1,0,0,1,-422,-136)">
                <path d="M506.023,481.621C497.725,470.572 499.341,455.003 509.738,445.951L740.479,244.944C740.741,244.716 741.012,244.496 741.292,244.289C756.519,233.032 775.744,228.584 794.411,232.019C811.513,235.168 823.681,250.491 822.871,267.862L822.797,269.468C821.853,289.737 812.003,308.518 795.903,320.787C795.651,320.979 795.391,321.162 795.126,321.335L541.517,487.864C529.92,495.478 514.378,492.746 506.023,481.621" style="fill:rgb(139,168,175);fill-rule:nonzero;"/>
            </g>
            <g transform="matrix(1,0,0,1,-422,-136)">
                <path d="M556.06,296.556C552.319,291.574 553.324,284.503 558.306,280.762L584.313,261.227C589.294,257.484 596.367,258.489 600.108,263.472C603.851,268.454 602.846,275.524 597.863,279.266L571.855,298.801C566.874,302.543 559.802,301.538 556.06,296.556" style="fill:rgb(209,34,39);fill-rule:nonzero;"/>
            </g>
            <g transform="matrix(1,0,0,1,-422,-136)">
                <path d="M586.989,316.393C583.247,311.411 584.252,304.339 589.234,300.598L615.241,281.062C620.225,277.321 627.295,278.325 631.038,283.308C634.78,288.29 633.775,295.362 628.793,299.103L602.785,318.638C597.803,322.38 590.731,321.375 586.989,316.393" style="fill:rgb(209,34,39);fill-rule:nonzero;"/>
            </g>
            <g transform="matrix(1,0,0,1,-422,-136)">
                <path d="M686.611,450.336C682.87,445.355 683.875,438.283 688.856,434.542L714.864,415.007C719.845,411.264 726.919,412.269 730.659,417.252C734.402,422.234 733.397,429.305 728.414,433.047L702.407,452.582C697.424,456.323 690.353,455.318 686.611,450.336" style="fill:rgb(209,34,39);fill-rule:nonzero;"/>
            </g>
            <g transform="matrix(1,0,0,1,-422,-136)">
                <path d="M696.399,487.036C692.658,482.055 693.663,474.983 698.644,471.241L724.652,451.705C729.635,447.965 736.706,448.968 740.448,453.951C744.19,458.933 743.185,466.005 738.204,469.746L712.195,489.282C707.213,493.023 700.141,492.018 696.399,487.036" style="fill:rgb(209,34,39);fill-rule:nonzero;"/>
            </g>
            <g transform="matrix(1,0,0,1,-422,-136)">
                <path d="M695.642,292.748L569.046,250.836C565.815,249.767 562.265,250.348 559.543,252.392C553.762,256.734 554.075,265.508 560.151,269.427L623.642,310.377C624.674,311.043 625.58,311.887 626.317,312.869L646.301,339.474C650.633,345.241 659.379,344.947 663.314,338.901L664.66,336.833L664.752,336.893L698.7,310.851C705.315,305.776 703.557,295.369 695.642,292.748" style="fill:rgb(139,168,175);fill-rule:nonzero;"/>
            </g>
            <g transform="matrix(1,0,0,1,-422,-136)">
                <path d="M741.128,353.307C740.817,344.976 731.313,340.388 724.596,345.327L690.124,370.674L690.155,370.78L687.793,371.496C680.892,373.59 678.172,381.907 682.503,387.674L702.487,414.281C703.226,415.262 703.783,416.367 704.135,417.544L725.773,489.931C727.843,496.858 736.182,499.603 741.962,495.261L741.963,495.261C744.684,493.217 746.231,489.969 746.104,486.568L741.128,353.307Z" style="fill:rgb(139,168,175);fill-rule:nonzero;"/>
            </g>
            <g transform="matrix(1,0,0,1,-422,-136)">
                <path d="M796.673,286.44C794.769,268.922 787.273,258.94 770.977,252.232C768.339,251.145 767.023,248.167 767.946,245.467L767.979,245.373C768.993,242.409 772.298,240.927 775.201,242.104C795.88,250.486 805.288,263.012 807.575,285.205C807.896,288.321 805.552,291.082 802.423,291.231C802.39,291.232 802.358,291.233 802.324,291.235C799.475,291.37 796.981,289.276 796.673,286.44" style="fill:rgb(8,71,97);fill-rule:nonzero;"/>
            </g>
        </g>
        <g id="Layer-1" transform="matrix(4.67252,0,0,4.75412,0,0)">
            <g transform="matrix(1,0,0,1,-422,-136)">
                <path d="M702.454,331.297C711.848,344.001 729.87,346.701 742.574,337.307C755.277,327.915 757.977,309.892 748.583,297.188C739.19,284.484 721.168,281.784 708.465,291.177C695.76,300.571 693.06,318.593 702.454,331.297" style="fill:rgb(252,231,161);"/>
            </g>
            <g transform="matrix(1,0,0,1,-422,-136)">
                <path d="M707.473,327.586C714.822,337.525 728.923,339.638 738.862,332.289C748.801,324.94 750.914,310.838 743.565,300.899C736.216,290.96 722.115,288.848 712.175,296.197C702.236,303.546 700.123,317.647 707.473,327.586" style="fill:rgb(8,140,191);"/>
            </g>
            <g transform="matrix(1,0,0,1,-422,-136)">
                <path d="M778.789,252.943C779.689,254.161 781.417,254.42 782.635,253.519C783.852,252.619 784.111,250.891 783.211,249.673C782.31,248.456 780.583,248.197 779.365,249.097C778.147,249.998 777.889,251.725 778.789,252.943" style="fill:rgb(130,101,87);"/>
            </g>
            <g transform="matrix(1,0,0,1,-422,-136)">
                <path d="M778.789,252.943C779.689,254.161 781.417,254.42 782.635,253.519C783.852,252.619 784.111,250.891 783.211,249.673C782.31,248.456 780.583,248.197 779.365,249.097C778.147,249.998 777.889,251.725 778.789,252.943Z" style="fill:none;stroke:rgb(25,25,25);stroke-width:1px;"/>
            </g>
            <g transform="matrix(1,0,0,1,-422,-136)">
                <path d="M783.722,257.411C784.622,258.629 786.349,258.888 787.568,257.987C788.785,257.087 789.044,255.36 788.144,254.141C787.243,252.924 785.516,252.665 784.298,253.565C783.079,254.466 782.821,256.193 783.722,257.411" style="fill:rgb(130,101,87);"/>
            </g>
            <g transform="matrix(1,0,0,1,-422,-136)">
                <path d="M783.722,257.411C784.622,258.629 786.349,258.888 787.568,257.987C788.785,257.087 789.044,255.36 788.144,254.141C787.243,252.924 785.516,252.665 784.298,253.565C783.079,254.466 782.821,256.193 783.722,257.411Z" style="fill:none;stroke:rgb(25,25,25);stroke-width:1px;"/>
            </g>
            <g transform="matrix(1,0,0,1,-422,-136)">
                <path d="M788.652,261.877C789.552,263.095 791.281,263.355 792.499,262.454C793.716,261.553 793.974,259.825 793.074,258.607C792.173,257.389 790.446,257.131 789.228,258.031C788.01,258.932 787.752,260.659 788.652,261.877" style="fill:rgb(130,101,87);"/>
            </g>
            <g transform="matrix(1,0,0,1,-422,-136)">
                <path d="M788.652,261.877C789.552,263.095 791.281,263.355 792.499,262.454C793.716,261.553 793.974,259.825 793.074,258.607C792.173,257.389 790.446,257.131 789.228,258.031C788.01,258.932 787.752,260.659 788.652,261.877Z" style="fill:none;stroke:rgb(25,25,25);stroke-width:1px;"/>
            </g>
            <g transform="matrix(1,0,0,1,-422,-136)">
                <path d="M792.531,267.123C793.431,268.341 795.159,268.6 796.377,267.699C797.594,266.799 797.853,265.072 796.953,263.853C796.052,262.636 794.325,262.376 793.106,263.277C791.888,264.177 791.631,265.905 792.531,267.123" style="fill:rgb(130,101,87);"/>
            </g>
            <g transform="matrix(1,0,0,1,-422,-136)">
                <path d="M792.531,267.123C793.431,268.341 795.159,268.6 796.377,267.699C797.594,266.799 797.853,265.072 796.953,263.853C796.052,262.636 794.325,262.376 793.106,263.277C791.888,264.177 791.631,265.905 792.531,267.123Z" style="fill:none;stroke:rgb(25,25,25);stroke-width:1px;"/>
            </g>
            <g transform="matrix(1,0,0,1,-422,-136)">
                <path d="M795.356,273.147C796.257,274.365 797.984,274.624 799.202,273.723C800.42,272.823 800.679,271.095 799.778,269.877C798.877,268.659 797.151,268.401 795.932,269.301C794.714,270.202 794.456,271.929 795.356,273.147" style="fill:rgb(130,101,87);"/>
            </g>
            <g transform="matrix(1,0,0,1,-422,-136)">
                <path d="M795.356,273.147C796.257,274.365 797.984,274.624 799.202,273.723C800.42,272.823 800.679,271.095 799.778,269.877C798.877,268.659 797.151,268.401 795.932,269.301C794.714,270.202 794.456,271.929 795.356,273.147Z" style="fill:none;stroke:rgb(25,25,25);stroke-width:1px;"/>
            </g>
            <g transform="matrix(1,0,0,1,-422,-136)">
                <path d="M798.183,279.171C799.083,280.389 800.811,280.648 802.029,279.747C803.246,278.847 803.505,277.119 802.605,275.901C801.704,274.684 799.977,274.425 798.759,275.325C797.541,276.226 797.283,277.953 798.183,279.171" style="fill:rgb(130,101,87);"/>
            </g>
            <g transform="matrix(1,0,0,1,-422,-136)">
                <path d="M798.183,279.171C799.083,280.389 800.811,280.648 802.029,279.747C803.246,278.847 803.505,277.119 802.605,275.901C801.704,274.684 799.977,274.425 798.759,275.325C797.541,276.226 797.283,277.953 798.183,279.171Z" style="fill:none;stroke:rgb(25,25,25);stroke-width:1px;"/>
            </g>
            <g transform="matrix(1,0,0,1,-422,-136)">
                <clipPath id="_clip1">
                    <path d="M742.156,262.699L605.504,368.628L521.775,435.464C521.775,435.464 503.555,448.078 501.404,459.85C499.253,471.622 503.516,479.054 505.667,481.129C507.817,483.204 510.719,490.394 526.255,492.153C541.793,493.912 547.636,483.844 547.636,483.844L599.065,450.075L780.58,312.462L815.143,275.506L785.787,240.21L742.156,262.699Z"/>
                </clipPath>
                <g clip-path="url(#_clip1)">
                    <path d="M498.008,467.766C592.617,397.609 683.754,323.667 778.036,253.506" style="fill:none;stroke:rgb(4,61,63);stroke-width:2px;"/>
                    <path d="M499.132,474.787C593.907,401.57 689.236,331.082 783.275,257.384" style="fill:none;stroke:rgb(4,61,63);stroke-width:2px;"/>
                    <path d="M502.149,480.745C596.765,407.649 694.212,335.595 788.706,261.51" style="fill:none;stroke:rgb(4,61,63);stroke-width:2px;"/>
                    <path d="M505.391,486.531C600.681,412.946 698.128,340.891 792.874,266.591" style="fill:none;stroke:rgb(4,61,63);stroke-width:2px;"/>
                    <path d="M511.768,489.933C605.656,417.458 702.044,346.187 794.991,273.23" style="fill:none;stroke:rgb(4,61,63);stroke-width:2px;"/>
                    <path d="M518.404,493.178C611.69,421.187 704.9,352.266 796.89,280.04" style="fill:none;stroke:rgb(4,61,63);stroke-width:2px;"/>
                </g>
            </g>
        </g>
    </g>
</svg>
